<svg width="289" height="289" viewBox="0 0 289 289" fill="none" xmlns="http://www.w3.org/2000/svg">
<g clip-path="url(#clip0_2_2974)">
<rect x="0.5" y="0.5" width="288" height="288" rx="10" fill="#2C7DFA"/>
<circle cx="267" cy="340" r="135" fill="#3685FF"/>
<circle cx="33" r="164" fill="#3685FF"/>
<path fill-rule="evenodd" clip-rule="evenodd" d="M125.19 64.5H119.672V70.0172H125.19V64.5ZM152.776 64.5H147.259V70.0172H152.776V64.5ZM152.776 64.5H158.293V70.0172H152.776V64.5ZM169.328 64.5H163.81V70.0172H169.328V64.5ZM108.638 70.0172H114.155H114.155H119.672V75.5345V81.0517V86.569V92.0862V97.6035H114.155V103.121V108.638V114.155H108.638V108.638V103.121V97.6035H114.155V92.0862V86.569H108.638V81.0517V75.5345V70.0172ZM125.19 70.0172H130.707V75.5345L125.19 75.5345V81.0517H130.707V86.569H125.19V81.0517H119.672V75.5345L125.19 75.5345V70.0172ZM136.224 70.0172H130.707V75.5345V81.0517H136.224H141.741V75.5345V70.0172H136.224ZM147.259 70.0172H141.741V75.5345H147.259L147.259 81.0517H152.776V75.5345L147.259 75.5345V70.0172ZM163.81 70.0172H158.293V75.5345H163.81V70.0172ZM174.845 70.0172H180.362V75.5345V81.0517V86.569V92.0862V97.6035V103.121V108.638H174.845V103.121V97.6035V92.0862V86.569V81.0517V75.5345V70.0172ZM180.362 108.638H185.879V114.155H180.362L180.362 108.638ZM169.328 75.5345H163.81V81.0517H169.328V75.5345ZM152.776 81.0517H158.293H163.81V86.569H158.293V92.0862H152.776V86.569V81.0517ZM147.259 86.569H152.776V92.0862V97.6035H147.259V92.0862V86.569ZM147.259 97.6035L147.259 103.121H152.776V108.638H147.259H141.741V103.121V97.6035H147.259ZM169.328 86.569H174.845V92.0862H169.328V86.569ZM136.224 92.0862H130.707V97.6035V103.121H136.224V97.6035V92.0862ZM125.19 97.6035H119.672V103.121H125.19V108.638H119.672V114.155H125.19V108.638H130.707V103.121H125.19V97.6035ZM152.776 97.6035H158.293V103.121V108.638H163.81V114.155V119.672V125.19H158.293H152.776V119.672V114.155V108.638V103.121V97.6035ZM169.328 97.6035H163.81V103.121V108.638H169.328L169.328 114.155H163.81V119.672H169.328H174.845V114.155V108.638H169.328V103.121V97.6035ZM64.5 108.638H70.0172V114.155V119.672H64.5V114.155V108.638ZM70.0172 125.19L70.0172 119.672L75.5345 119.672V125.19H70.0172ZM70.0172 130.707H64.5V125.19H70.0172L70.0172 130.707ZM70.0172 130.707H75.5345V136.224H70.0172L70.0172 130.707ZM103.121 108.638H97.6035V114.155H103.121V108.638ZM185.879 108.638H191.397V114.155H185.879V108.638ZM191.397 114.155H196.914V119.672H191.397L191.397 114.155ZM207.948 108.638H202.431V114.155H196.914V119.672H202.431L202.431 114.155H207.948L207.948 119.672H213.465V114.155V108.638H207.948ZM218.983 108.638H213.466V114.155V119.672H218.983V114.155V108.638ZM81.0517 114.155H75.5345V119.672V125.19V130.707H81.0517V125.19H86.5689V119.672L81.0517 119.672V114.155ZM92.0862 114.155H97.6034V119.672H92.0862V114.155ZM92.0862 125.19H86.569V119.672L92.0862 119.672L92.0862 125.19ZM92.0862 136.224V130.707L92.0862 125.19H97.6034V130.707V136.224H92.0862ZM92.0862 136.224L92.0862 141.741V147.259H86.569V141.741V136.224H92.0862ZM141.741 114.155H136.224V119.672L130.707 119.672V125.19V130.707H136.224L136.224 136.224H141.741V130.707V125.19V119.672V114.155ZM97.6035 119.672H103.121H103.121H108.638V125.19V130.707H103.121V125.19H97.6035V119.672ZM103.121 136.224H97.6035V130.707H103.121L103.121 136.224ZM103.121 141.741L103.121 136.224H108.638V141.741H103.121ZM103.121 141.741L103.121 147.259H97.6035V141.741H103.121ZM108.638 119.672H114.155H114.155H119.672V125.19V130.707H114.155V136.224H108.638V130.707V125.19V119.672ZM114.155 136.224H119.672V141.741V147.259V152.776H114.155H108.638V147.259V141.741H114.155L114.155 136.224ZM141.741 119.672H147.259H152.776V125.19H147.259H141.741V119.672ZM119.672 125.19H125.19V130.707V136.224V141.741H119.672V136.224V130.707V125.19ZM180.362 125.19H174.845V130.707V136.224V141.741H180.362L180.362 147.259H185.879V141.741V136.224H180.362V130.707V125.19ZM185.879 125.19H191.397H196.914V130.707V136.224H191.397V141.741H185.879V136.224V130.707V125.19ZM191.397 141.741H196.914V147.259V152.776V158.293V163.81H191.397H185.879V158.293H191.397V152.776V147.259L191.397 141.741ZM202.431 125.19H207.948V130.707H202.431V125.19ZM152.776 130.707H147.259V136.224H152.776V130.707ZM152.776 130.707H158.293V136.224V141.741H152.776V136.224V130.707ZM158.293 141.741H163.81V147.259H158.293L158.293 141.741ZM174.845 130.707H169.328V136.224V141.741H163.81V147.259V152.776V158.293V163.81H169.328L169.328 169.328L163.81 169.328V174.845H169.328L169.328 169.328H174.845V163.81V158.293V152.776V147.259H169.328L169.328 141.741H174.845V136.224V130.707ZM224.5 130.707H218.983V136.224V141.741H224.5V136.224V130.707ZM75.5345 136.224H81.0517V141.741H75.5345V136.224ZM196.914 136.224H202.431V141.741H196.914V136.224ZM207.948 163.81H213.465V158.293V152.776V147.259V141.741H207.948H202.431L202.431 147.259H196.914V152.776H202.431L202.431 158.293H196.914V163.81H202.431L202.431 169.328L196.914 169.328V174.845V180.362V185.879V191.397V196.914V202.431H202.431L202.431 207.948H196.914V213.466H202.431L202.431 218.983H196.914V224.5H202.431H207.948H213.465V218.983V213.466V207.948V202.431H207.948V196.914H202.431V191.397H207.948H213.465V185.879H207.948L207.948 180.362H213.465V174.845H207.948V180.362H202.431V174.845L202.431 169.328H207.948L207.948 163.81ZM207.948 163.81L207.948 158.293H202.431L202.431 163.81H207.948ZM202.431 152.776L202.431 147.259H207.948L207.948 152.776H202.431ZM218.983 136.224H213.466V141.741H218.983V136.224ZM70.0172 141.741H64.5V147.259H70.0172H75.5345V141.741H70.0172ZM125.19 147.259H119.672V152.776H125.19L125.19 158.293V163.81V169.328L119.672 169.328V174.845H125.19L125.19 180.362H119.672V185.879H125.19L125.19 180.362H130.707V174.845H125.19L125.19 169.328H130.707V163.81V158.293V152.776H125.19V147.259ZM147.259 147.259H152.776V152.776H147.259V147.259ZM218.983 147.259H224.5V152.776H218.983V147.259ZM70.0172 152.776H64.5V158.293V163.81V169.328V174.845V180.362H70.0172V174.845V169.328H75.5345V163.81H70.0172V158.293V152.776ZM86.569 152.776H92.0862H97.6034V158.293H92.0862H86.569V152.776ZM97.6035 152.776H103.121V158.293H97.6035V152.776ZM103.121 163.81L103.121 158.293H108.638V163.81H103.121ZM103.121 163.81L103.121 169.328H97.6035V163.81H103.121ZM152.776 152.776H158.293H163.81V158.293V163.81H158.293L158.293 158.293H152.776V152.776ZM114.155 158.293H108.638V163.81V169.328H114.155L114.155 174.845V180.362H108.638V185.879H114.155H119.672V180.362V174.845V169.328V163.81V158.293H114.155ZM136.224 158.293H141.741V163.81H136.224V158.293ZM147.259 158.293H141.741V163.81H147.259L147.259 169.328H152.776V163.81H147.259V158.293ZM180.362 158.293H174.845V163.81H180.362V158.293ZM213.466 158.293H218.983V163.81H213.466V158.293ZM224.5 158.293H218.983V163.81V169.328H224.5V163.81V158.293ZM81.0517 163.81H86.5689V169.328V174.845H81.0517H75.5345V169.328L81.0517 169.328V163.81ZM92.0862 163.81H86.569V169.328H92.0862L92.0862 174.845H86.569V180.362H92.0862L92.0862 174.845H97.6034V169.328V163.81H92.0862ZM136.224 169.328H130.707V174.845H136.224H141.741V169.328H136.224ZM174.845 169.328H180.362H185.879V174.845V180.362H180.362V185.879V191.397V196.914H185.879V202.431V207.948V213.466V218.983V224.5H180.362V218.983V213.466V207.948L180.362 202.431H174.845V196.914V191.397V185.879V180.362V174.845V169.328ZM185.879 169.328H191.397H196.914V174.845V180.362H191.397H185.879V174.845V169.328ZM103.121 174.845H97.6035V180.362H103.121H108.638V174.845H103.121ZM147.259 174.845H141.741V180.362V185.879H147.259V180.362H152.776V174.845H147.259ZM163.81 174.845H158.293V180.362V185.879H163.81V180.362V174.845ZM213.466 174.845H218.983V180.362H213.466V174.845ZM224.5 174.845H218.983V180.362H224.5V174.845ZM169.328 180.362H163.81V185.879V191.397H169.328L169.328 196.914V202.431H163.81V207.948H169.328L169.328 213.466V218.983H163.81V224.5H169.328H174.845V218.983V213.466V207.948H169.328L169.328 202.431H174.845V196.914V191.397V185.879H169.328V180.362ZM136.224 185.879H130.707V191.397H136.224V185.879ZM191.397 185.879H185.879V191.397H191.397V185.879ZM125.19 191.397H119.672V196.914H125.19H130.707V191.397H125.19ZM147.259 191.397H141.741V196.914V202.431V207.948H147.259L147.259 213.466V218.983H141.741V224.5H147.259L147.259 218.983H152.776V213.466V207.948H147.259V202.431V196.914H152.776V191.397H147.259ZM158.293 191.397H152.776V196.914V202.431H158.293L158.293 207.948H152.776V213.466H158.293H163.81V207.948V202.431H158.293V196.914V191.397ZM224.5 191.397H218.983V196.914H224.5V191.397ZM130.707 196.914H136.224H141.741V202.431V207.948H136.224L136.224 202.431H130.707V196.914ZM191.397 196.914H185.879V202.431H191.397L191.397 207.948H185.879V213.466H191.397L191.397 218.983H185.879V224.5H191.397H196.914V218.983V213.466V207.948V202.431V196.914H191.397ZM119.672 202.431H114.155V207.948V213.466H119.672V207.948V202.431ZM119.672 202.431H125.19H130.707V207.948H125.19V213.466H119.672V207.948V202.431ZM213.466 202.431H218.983V207.948V213.466H213.466V207.948V202.431ZM130.707 213.466H136.224V218.983H130.707V213.466ZM136.224 218.983H141.741V224.5H136.224L136.224 218.983ZM224.5 213.466H218.983V218.983H224.5V213.466ZM108.638 218.983H114.155H119.672V224.5H114.155H108.638V218.983ZM125.19 218.983H130.707V224.5H125.19V218.983ZM163.81 218.983H158.293V224.5H163.81V218.983Z" fill="white"/>
<path fill-rule="evenodd" clip-rule="evenodd" d="M70.2931 64.5H97.3276H103.121V70.2931V97.3276V103.121H97.3276H70.2931H64.5V97.3276V70.2931V64.5H70.2931ZM70.2931 97.3276H97.3276V70.2931H70.2931V97.3276Z" fill="white"/>
<path fill-rule="evenodd" clip-rule="evenodd" d="M191.672 64.5H218.707H224.5V70.2931V97.3276V103.121H218.707H191.672H185.879V97.3276V70.2931V64.5H191.672ZM191.672 97.3276H218.707V70.2931H191.672V97.3276Z" fill="white"/>
<path fill-rule="evenodd" clip-rule="evenodd" d="M70.2931 185.879H97.3276H103.121V191.672V218.707V224.5H97.3276H70.2931H64.5V218.707V191.672V185.879H70.2931ZM70.2931 218.707H97.3276V191.672H70.2931V218.707Z" fill="white"/>
<rect x="75.5345" y="75.5345" width="16.5517" height="16.5517" fill="white"/>
<rect x="196.914" y="75.5345" width="16.5517" height="16.5517" fill="white"/>
<rect x="75.5345" y="196.914" width="16.5517" height="16.5517" fill="white"/>
</g>
<defs>
<clipPath id="clip0_2_2974">
<rect x="0.5" y="0.5" width="288" height="288" rx="10" fill="white"/>
</clipPath>
</defs>
</svg>
